<svg width="177" height="178" viewBox="0 0 177 178" fill="none" xmlns="http://www.w3.org/2000/svg">
<ellipse cx="88.5" cy="89" rx="88.5" ry="89" fill="#4E127D"/>
<path fill-rule="evenodd" clip-rule="evenodd" d="M85.8987 44.5161C93.815 45.2596 100.504 49.3672 107.52 52.7593C114.757 56.2578 123.203 58.5858 127.756 64.7524C132.388 71.0256 133.911 79.1425 132.485 86.5712C131.136 93.6024 123.447 97.9393 120.144 104.422C116.391 111.786 118.347 121.544 111.825 127.116C105.193 132.782 94.9364 134.861 85.8987 133.682C77.1311 132.539 71.1568 125.542 63.963 120.874C57.4848 116.671 49.2645 113.973 45.6354 107.559C42.0452 101.214 42.5724 93.468 44.5534 86.5712C46.3173 80.43 53.5033 76.9368 56.1218 71.0495C59.3591 63.7709 55.3308 53.9477 61.5139 48.4381C67.492 43.1112 77.5445 43.7314 85.8987 44.5161Z" fill="white"/>
</svg>
